<?xml version="1.0" encoding="utf-8"?>
<!-- Generator: Adobe Illustrator 24.1.0, SVG Export Plug-In . SVG Version: 6.00 Build 0)  -->
<svg version="1.1" id="Capa_1" xmlns="http://www.w3.org/2000/svg" xmlns:xlink="http://www.w3.org/1999/xlink" x="0px" y="0px"
	 viewBox="0 0 384 384" style="enable-background:new 0 0 384 384;" xml:space="preserve">
<style type="text/css">
	.st0{fill:url(#SVGID_1_);}
	.st1{fill:url(#SVGID_2_);}
	.st2{fill:url(#SVGID_3_);}
</style>
<linearGradient id="SVGID_1_" gradientUnits="userSpaceOnUse" x1="0" y1="191.668" x2="384" y2="191.668">
	<stop  offset="0" style="stop-color:#FDD862"/>
	<stop  offset="0.338" style="stop-color:#EDBB3B"/>
	<stop  offset="0.7011" style="stop-color:#BD8A0E"/>
	<stop  offset="1" style="stop-color:#AD7702"/>
</linearGradient>
<path class="st0" d="M368,207.7H16c-8.8,0-16-7.2-16-16s7.2-16,16-16h352c8.8,0,16,7.2,16,16S376.8,207.7,368,207.7z"/>
<linearGradient id="SVGID_2_" gradientUnits="userSpaceOnUse" x1="0" y1="69" x2="384" y2="69">
	<stop  offset="0" style="stop-color:#FDD862"/>
	<stop  offset="0.338" style="stop-color:#EDBB3B"/>
	<stop  offset="0.7011" style="stop-color:#BD8A0E"/>
	<stop  offset="1" style="stop-color:#AD7702"/>
</linearGradient>
<path class="st1" d="M368,85H16C7.2,85,0,77.8,0,69s7.2-16,16-16h352c8.8,0,16,7.2,16,16S376.8,85,368,85z"/>
<linearGradient id="SVGID_3_" gradientUnits="userSpaceOnUse" x1="0" y1="314.332" x2="384" y2="314.332">
	<stop  offset="0" style="stop-color:#FDD862"/>
	<stop  offset="0.338" style="stop-color:#EDBB3B"/>
	<stop  offset="0.7011" style="stop-color:#BD8A0E"/>
	<stop  offset="1" style="stop-color:#AD7702"/>
</linearGradient>
<path class="st2" d="M368,330.3H16c-8.8,0-16-7.2-16-16s7.2-16,16-16h352c8.8,0,16,7.2,16,16S376.8,330.3,368,330.3z"/>
</svg>
